<svg id="cafeLogo" width="300" height="200" viewBox="0 0 300 200" xmlns="http://www.w3.org/2000/svg">
                <!-- Cup -->
                <path d="M110,120 C110,100 130,85 150,85 C170,85 190,100 190,120 L190,150 L110,150 L110,120 Z" fill="#f8f5f0" stroke="#5c3d2e" stroke-width="4"/>
                
                <!-- Coffee inside cup -->
                <path d="M115,120 C115,105 130,95 150,95 C170,95 185,105 185,120 L185,130 L115,130 L115,120 Z" fill="#5c3d2e"/>
                
                <!-- Saucer -->
                <ellipse cx="150" cy="160" rx="50" ry="8" fill="#f8f5f0" stroke="#5c3d2e" stroke-width="4"/>
                
                <!-- Handle -->
                <path d="M190,110 C210,105 215,100 210,80" fill="none" stroke="#5c3d2e" stroke-width="4"/>
                
                <!-- Steam -->
                <path d="M140,70 C135,40 145,30 150,10" fill="none" stroke="#c9b4a5" stroke-width="2" stroke-linecap="round"/>
                <path d="M160,70 C155,40 165,30 170,10" fill="none" stroke="#c9b4a5" stroke-width="2" stroke-linecap="round"/>
                
                <!-- Text -->
                <text x="150" y="40" text-anchor="middle" font-family="cursive" font-size="24" fill="#5c3d2e">Cafe</text>
                <text x="150" y="70" text-anchor="middle" font-family="cursive" font-size="28" font-weight="bold" fill="#8b5a3c">Delight</text>
            </svg>